# xmcd
#
# Track frame offsets:
#	150
#	17903
#	42295
#	65668
#
# Disc length: 1156 seconds
#
# Revision: 0
# Processed by: cddbd v1.5.2PL0 Copyright (c) Steve Scherf et al.
# Submitted via: EasyCDDAExtractor 2010.6.0.0
#
DISCID=31048204
DTITLE=Covernova - Ti Amo '95
DYEAR=1995
DGENRE=Dance
TTITLE0=Ti Amo '95 (Radio Edit)
TTITLE1=Ti Amo '95 (Nova Dance Mix)
TTITLE2=Ti Amo '95 (M.S. Edit)
TTITLE3=Xtreem (Jack Mix)
EXTD=
EXTT0=
EXTT1=
EXTT2=
EXTT3=
PLAYORDER=
